<svg xmlns="http://www.w3.org/2000/svg" width="29" height="42" fill="none" viewBox="0 0 29 42"><path fill="#0087BA" d="M29 10.768v26.407c0 2.439-1.94 4.416-4.335 4.416H4.335C1.94 41.59 0 39.614 0 37.174V10.768C0 8.328 1.94 6.35 4.335 6.35h20.33C27.06 6.351 29 8.328 29 10.768Z"/><path fill="#0297CF" d="M29 10.768v26.407c0 2.439-1.94 4.416-4.334 4.416H5.418c-2.394 0-4.335-1.977-4.335-4.416V10.768c0-2.44 1.941-4.417 4.335-4.417h19.248C27.06 6.351 29 8.328 29 10.768Z"/><path fill="#F4F4F4" d="M22.624 10.863h2.562V36.58H3.814V10.863h2.562"/><path fill="#5FC0CA" fill-rule="evenodd" d="M18.279 5.134h2.565c.983 0 1.78.812 1.78 1.813v4.14c0 1.001-.797 1.813-1.78 1.813H8.156c-.983 0-1.78-.812-1.78-1.812v-4.14c0-1.002.797-1.814 1.78-1.814h2.565a4.09 4.09 0 0 1-.158-1.124c0-2.297 1.897-4.144 4.183-4.002 1.908.118 3.474 1.649 3.67 3.586.055.539 0 1.058-.137 1.54Zm-5.33-1.123c0 .873.694 1.581 1.552 1.581.856 0 1.551-.708 1.551-1.581 0-.874-.695-1.581-1.551-1.581-.858 0-1.553.707-1.553 1.58Z" clip-rule="evenodd"/><path fill="#E94F4E" fill-rule="evenodd" d="M9.825 15.596h3.01c.25 0 .475.042.676.124.2.082.373.195.516.338.143.144.253.31.328.498.076.189.114.392.114.61 0 .334-.07.623-.207.867-.139.245-.364.43-.677.558v.016a.94.94 0 0 1 .375.195c.1.088.18.191.243.31.062.12.108.251.137.395.028.143.048.286.058.43.006.09.01.196.016.318.005.122.014.247.027.375.013.127.034.248.063.362a.845.845 0 0 0 .129.29h-1.228a2.244 2.244 0 0 1-.125-.644 9.766 9.766 0 0 0-.07-.717c-.042-.297-.13-.515-.266-.653-.135-.138-.357-.207-.664-.207h-1.228v2.222H9.825v-5.687Zm1.227 2.573h1.345c.281 0 .492-.064.633-.192.14-.127.211-.334.211-.62 0-.277-.07-.477-.211-.602-.14-.125-.352-.187-.633-.187h-1.345v1.6Zm4.05-1.004 1.329 1.951-1.455 2.167h1.243l.845-1.299.844 1.299h1.267l-1.494-2.19 1.33-1.928h-1.228l-.704 1.075-.711-1.075h-1.266Z" clip-rule="evenodd"/><path fill="#6C7380" d="M21.312 26.438H7.69a.63.63 0 0 1-.625-.636.63.63 0 0 1 .625-.637h13.624a.63.63 0 0 1 .625.637c0 .351-.28.636-.626.636ZM21.312 32.953H7.689a.63.63 0 0 1-.625-.636.63.63 0 0 1 .625-.637h13.623a.63.63 0 0 1 .625.637.63.63 0 0 1-.625.636ZM21.312 29.696H7.689a.631.631 0 0 1-.625-.637.63.63 0 0 1 .625-.636h13.623a.63.63 0 0 1 .625.636c0 .352-.28.637-.625.637Z"/></svg>