<svg xmlns="http://www.w3.org/2000/svg" width="26" height="43" fill="none" viewBox="0 0 26 43"><path fill="#E3AA75" d="M22.509 10.88V9.787c0-5.126-3.94-9.536-9.06-9.777a9.52 9.52 0 0 0-9.98 9.508v1.36c0 3.083-1.164 5.39-1.733 6.333a.679.679 0 0 0 .135.869c1.04.9 3.856 3.071 7.719 3.964h6.799c3.862-.893 6.678-3.064 7.719-3.965a.679.679 0 0 0 .135-.868c-.57-.943-1.734-3.25-1.734-6.333Z"/><path fill="#F7D291" d="m23.848 26.995-6.223-2.667a2.04 2.04 0 0 1-1.236-1.875V19.04h-6.8v3.414a2.04 2.04 0 0 1-1.236 1.875l-6.222 2.667A3.4 3.4 0 0 0 .07 30.12v9.317a2.72 2.72 0 0 0 2.72 2.72H8.91a2.04 2.04 0 0 0 2.04-2.04c0-.24-.05-.466-.125-.68h4.33a2.02 2.02 0 0 0-.126.68 2.04 2.04 0 0 0 2.04 2.04h6.12a2.72 2.72 0 0 0 2.72-2.72V30.12a3.4 3.4 0 0 0-2.061-3.125Z"/><path fill="#E3AA75" d="M18.429 24.672v.486a5.44 5.44 0 0 1-10.88 0v-.486l-3.4 1.457v9.908h17.68V26.13l-3.4-1.457Z"/><path fill="#FF8087" d="M4.902 38.077H8.91c.887 0 1.634.57 1.915 1.36h4.33a2.034 2.034 0 0 1 1.914-1.36h4.008a4.76 4.76 0 0 0-3.328-8.16h-9.52a4.76 4.76 0 0 0-3.327 8.16Z"/><path fill="#FFE1A0" d="M17.75 29.918h-4.012a3.4 3.4 0 0 0 3.331 4.08 3.392 3.392 0 0 0 3.383-3.236 4.733 4.733 0 0 0-2.703-.844Z"/><path fill="#F0C382" d="M9.59 19.039v1.968a8.098 8.098 0 0 0 3.4.752 8.099 8.099 0 0 0 3.399-.752v-1.968h-6.8Z"/><path fill="#FFE1A0" d="M12.99 20.398a6.8 6.8 0 0 1-6.8-6.8V5.44h13.599v8.16a6.8 6.8 0 0 1-6.8 6.8Z"/><path fill="#6E5A64" d="M17.076 32.638a.683.683 0 0 1-.683-.68c0-.376.3-.68.676-.68h.007a.68.68 0 1 1 0 1.36ZM9.93 13.06c-.642 0-1.23-.285-1.573-.763a.68.68 0 1 1 1.105-.793c.065.09.227.197.468.197.24 0 .402-.106.467-.197a.68.68 0 1 1 1.105.793c-.343.478-.931.763-1.572.763Z"/><path fill="#E3AA75" d="M12.99 17c-1.021 0-1.963-.328-2.519-.878a.68.68 0 1 1 .957-.966c.226.224.77.485 1.561.485.791 0 1.336-.261 1.562-.486a.68.68 0 1 1 .956.967c-.555.55-1.497.879-2.518.879Z"/><path fill="#6E5A64" d="M16.05 13.06c-.642 0-1.23-.285-1.573-.763a.68.68 0 1 1 1.105-.793c.065.09.226.197.467.197.241 0 .403-.106.468-.197a.679.679 0 1 1 1.105.793c-.343.478-.931.763-1.573.763Z"/><path fill="#F7D291" d="m9.59 5.44-.42.799c.135.186 3.353 4.474 10.62 4.634V5.44H9.59Z"/><path fill="#F5B97D" d="M9.82 6.214a.675.675 0 0 1 1.038-.12c1.334 1.314 4.997 4.083 11.611 3.296l.024-.179C22.329 4.098 18.143 0 12.989 0a9.52 9.52 0 0 0-9.52 9.52s4.137 0 6.35-3.306Z"/><path fill="#E6646E" d="M10.984 29.918h-1.36a10.882 10.882 0 0 0 5.83 8.965c.353-.465.9-.77 1.522-.798-3.323-1.317-5.727-4.447-5.992-8.167Z"/><path fill="#E6646E" d="M21.097 31.296c.03.217.052.437.052.662a4.774 4.774 0 0 1-4.76 4.76h-6.8a4.774 4.774 0 0 1-4.759-4.76c0-.225.021-.445.052-.662a4.744 4.744 0 0 0-1.412 3.382c0 1.332.55 2.535 1.432 3.4H8.91c.887 0 1.634.569 1.915 1.36h4.33a2.034 2.034 0 0 1 1.914-1.36h4.008a4.743 4.743 0 0 0 1.432-3.4c0-1.323-.54-2.52-1.412-3.382Z"/><path fill="#DC4655" d="M14.604 36.717h-2.012c.825.87 1.79 1.605 2.863 2.166a2.056 2.056 0 0 1 .333-.34 2.01 2.01 0 0 1 .734-.386l.01-.002c.142-.04.29-.063.444-.07a9.508 9.508 0 0 1-2.372-1.368Z"/><path fill="#F0C382" d="M2.11 40.117a2.046 2.046 0 0 1-2.04-2.04v1.36a2.72 2.72 0 0 0 2.72 2.72h6.12a2.04 2.04 0 0 0 2.04-2.04H2.11ZM23.869 40.117c1.122 0 2.04-.918 2.04-2.04v1.36a2.72 2.72 0 0 1-2.72 2.72h-6.12a2.04 2.04 0 0 1-2.04-2.04h8.84Z"/></svg>