<svg xmlns="http://www.w3.org/2000/svg" width="39" height="38" fill="none" viewBox="0 0 39 38"><mask id="mask0" width="28" height="19" x="8" y="-1" mask-type="alpha" maskUnits="userSpaceOnUse"><path fill="#fff" fill-rule="evenodd" d="M8.97 0h26.935v17.952H8.97V0Z" clip-rule="evenodd"/></mask><g mask="url(#mask0)"><path fill="#3D5868" d="M34.978.43c-.5-.522-1.174-.573-1.757-.135-.944.712-3.82 2.881-8.27 1.472-3.593-1.139-6.402-1.384-8.587-.751-2.072.598-3.566 2.015-4.444 4.212C9.712 6.684 8.713 9.01 9.027 11.97c.246 2.306 1.238 4.523 2.011 5.721.169.261.522.34.79.176a.555.555 0 0 0 .265-.472h18.4c0 .307.256.556.57.557.197 0 .38-.098.484-.26.825-1.276 1.978-4.364 2.03-7.337 1.711-1.973 2.165-4.324 2.282-5.571.178-1.9-.168-3.608-.88-4.353Z"/></g><mask id="mask1" width="7" height="19" x="29" y="-1" mask-type="alpha" maskUnits="userSpaceOnUse"><path fill="#fff" fill-rule="evenodd" d="M29.186 0h6.718V17.95h-6.717V0Z" clip-rule="evenodd"/></mask><g mask="url(#mask1)"><path fill="#2A434F" d="M34.978.43c-.501-.522-1.174-.573-1.757-.135-.143.11-.333.252-.565.41.563.842.822 2.385.663 4.079-.117 1.247-.57 3.598-2.282 5.571-.049 2.765-1.048 5.626-1.85 7.04h1.306c0 .307.256.556.57.556.197.001.38-.097.484-.26.825-1.275 1.98-4.363 2.03-7.336 1.711-1.973 2.164-4.324 2.281-5.571.179-1.9-.167-3.609-.88-4.353Z"/></g><path fill="#F0EEEE" d="M25.532 26.418H17.47c-3.485.004-6.308 2.755-6.311 6.15v4.874c0 .308.256.557.571.557h19.544c.316 0 .571-.249.571-.556v-4.876c-.004-3.395-2.828-6.146-6.312-6.15"/><path fill="#D9D4D4" d="M25.533 26.418h-1.924c3.485.003 6.309 2.755 6.312 6.15v4.874a.55.55 0 0 1-.167.394.579.579 0 0 1-.404.163h1.923c.316 0 .572-.249.572-.556v-4.876c-.004-3.395-2.828-6.146-6.312-6.15"/><mask id="mask2" width="28" height="39" x="8" y="-1" mask-type="alpha" maskUnits="userSpaceOnUse"><path fill="#fff" fill-rule="evenodd" d="M8.97 38h26.936V0H8.97v38Z" clip-rule="evenodd"/></mask><g mask="url(#mask2)"><path fill="#49B6F2" d="M18.295 38h6.413V26.974h-6.413V38Z"/></g><mask id="mask3" width="28" height="39" x="8" y="-1" mask-type="alpha" maskUnits="userSpaceOnUse"><path fill="#fff" fill-rule="evenodd" d="M8.97 38h26.936V0H8.97v38Z" clip-rule="evenodd"/></mask><g mask="url(#mask3)"><path fill="#68C8FC" fill-rule="evenodd" d="M21.501 30.26v-2.734l3.208-.552v5.459l-3.208-2.174Zm0 0-3.207 2.173v-5.458l3.207.552v2.733Z" clip-rule="evenodd"/></g><mask id="mask4" width="28" height="39" x="8" y="-1" mask-type="alpha" maskUnits="userSpaceOnUse"><path fill="#fff" fill-rule="evenodd" d="M8.97 38h26.936V0H8.97v38Z" clip-rule="evenodd"/></mask><g mask="url(#mask4)"><path fill="#19303F" d="M28.029 32.897a.565.565 0 0 1-.572-.557v-2.684c-.003-3.103-2.584-5.619-5.769-5.622-3.185.003-5.767 2.519-5.77 5.622v2.31a.564.564 0 0 1-.571.557.564.564 0 0 1-.572-.556v-2.31c0-3.714 3.102-6.736 6.913-6.736 3.812 0 6.913 3.022 6.913 6.735v2.684a.55.55 0 0 1-.168.394.58.58 0 0 1-.404.163Z"/></g><mask id="mask5" width="28" height="39" x="8" y="-1" mask-type="alpha" maskUnits="userSpaceOnUse"><path fill="#fff" fill-rule="evenodd" d="M8.97 38h26.936V0H8.97v38Z" clip-rule="evenodd"/></mask><g mask="url(#mask5)"><path fill="#FA9E3E" fill-rule="evenodd" d="M11.586 16.625h3.76v4.2h-3.76c-.77 0-1.482-.4-1.867-1.05a2.054 2.054 0 0 1 0-2.1 2.167 2.167 0 0 1 1.867-1.05Zm6.708 3.246V26.6c.043 1.695 1.466 3.048 3.207 3.048 1.74 0 3.164-1.353 3.206-3.048v-6.73h-6.413Zm9.36-3.246h3.762c.77 0 1.481.4 1.866 1.05.386.65.386 1.45 0 2.1a2.167 2.167 0 0 1-1.866 1.05h-3.761v-4.2Z" clip-rule="evenodd"/></g><mask id="mask6" width="28" height="39" x="8" y="-1" mask-type="alpha" maskUnits="userSpaceOnUse"><path fill="#fff" fill-rule="evenodd" d="M8.97 38h26.936V0H8.97v38Z" clip-rule="evenodd"/></mask><g mask="url(#mask6)"><path fill="#FFB56B" d="M30.04 12.33v4.7c0 4.599-3.79 8.396-8.51 8.411a8.657 8.657 0 0 1-6.058-2.426 8.215 8.215 0 0 1-2.512-5.894V13.87c0-.066.041-.125.104-.152 2.066-.92 2.755-3.306 2.938-5.013.039-.37.053-.706.054-.989 0-.154.194-.225.298-.11.241.262.615.65 1.105 1.1 2.257 2.065 6.966 5.393 12.352 3.467a.175.175 0 0 1 .157.02.166.166 0 0 1 .073.137"/></g><mask id="mask7" width="28" height="39" x="8" y="-1" mask-type="alpha" maskUnits="userSpaceOnUse"><path fill="#fff" fill-rule="evenodd" d="M8.97 38h26.936V0H8.97v38Z" clip-rule="evenodd"/></mask><g mask="url(#mask7)"><path fill="#19303F" d="M21.5 21.41a3.16 3.16 0 0 1-2.576-1.316.548.548 0 0 1 .154-.76.581.581 0 0 1 .785.126c.372.524.984.837 1.638.837.654 0 1.266-.313 1.638-.837a.581.581 0 0 1 .795-.141c.26.175.324.522.145.775A3.162 3.162 0 0 1 21.5 21.41Z"/></g><mask id="mask8" width="28" height="39" x="8" y="-1" mask-type="alpha" maskUnits="userSpaceOnUse"><path fill="#fff" fill-rule="evenodd" d="M8.97 38h26.936V0H8.97v38Z" clip-rule="evenodd"/></mask><g mask="url(#mask8)"><path fill="#EF9245" d="M28.263 17.987c0 3.954-3.168 7.22-7.22 7.442.076.005.152.008.227.01h.002c.291.006.583 0 .873-.021l.032-.003c.131-.01.259-.022.387-.038 4.215-.51 7.477-4.012 7.477-8.256V12.09a10.01 10.01 0 0 1-1.778.502v5.396Z"/></g><mask id="mask9" width="28" height="39" x="8" y="-1" mask-type="alpha" maskUnits="userSpaceOnUse"><path fill="#fff" fill-rule="evenodd" d="M8.97 38h26.936V0H8.97v38Z" clip-rule="evenodd"/></mask><g mask="url(#mask9)"><path fill="#19303F" fill-rule="evenodd" d="M25.067 16.733c0 .307.256.556.571.556.316 0 .572-.249.572-.556v-.149a.564.564 0 0 0-.572-.556.564.564 0 0 0-.571.556v.149Zm-8.276.001c0 .308.256.557.572.557.315 0 .571-.25.571-.557v-.148a.566.566 0 0 0-.571-.525.566.566 0 0 0-.572.525v.148Z" clip-rule="evenodd"/></g><mask id="mask10" width="28" height="39" x="8" y="-1" mask-type="alpha" maskUnits="userSpaceOnUse"><path fill="#fff" fill-rule="evenodd" d="M8.97 38h26.936V0H8.97v38Z" clip-rule="evenodd"/></mask><g mask="url(#mask10)"><path fill="#78D6D1" d="M15.347 31.41c-.921 0-1.672.732-1.672 1.63 0 .9.75 1.63 1.673 1.63.922 0 1.673-.731 1.673-1.63-.002-.899-.75-1.627-1.673-1.63"/></g><mask id="mask11" width="28" height="39" x="8" y="-1" mask-type="alpha" maskUnits="userSpaceOnUse"><path fill="#fff" fill-rule="evenodd" d="M8.97 38h26.936V0H8.97v38Z" clip-rule="evenodd"/></mask><g mask="url(#mask11)"><path fill="#304A56" d="m21.501 30.26-1.716 1.163a2.41 2.41 0 0 0 1.717.713 2.41 2.41 0 0 0 1.716-.713l-1.716-1.163Z"/></g><mask id="mask12" width="28" height="39" x="8" y="-1" mask-type="alpha" maskUnits="userSpaceOnUse"><path fill="#fff" fill-rule="evenodd" d="M8.97 38h26.936V0H8.97v38Z" clip-rule="evenodd"/></mask><g mask="url(#mask12)"><path fill="#3D5868" fill-rule="evenodd" d="M29.267 36.444h.277c.315 0 .57-.25.571-.557v-2.073c0-1.119-.936-2.03-2.086-2.03-1.151 0-2.084.909-2.085 2.03v2.073c0 .308.256.557.571.557h.278a.57.57 0 0 0 .544-.41.552.552 0 0 0-.251-.624v-1.596a.933.933 0 0 1 .943-.89c.51 0 .927.394.943.89v1.595a.55.55 0 0 0-.257.627.57.57 0 0 0 .552.408Zm-8.48-4.415c.225.07.464.107.714.107h.001c.242 0 .483-.036.715-.107l.79 5.97h-3.01l.79-5.97Z" clip-rule="evenodd"/></g></svg>