<svg xmlns="http://www.w3.org/2000/svg" width="39" height="37" fill="none" viewBox="0 0 39 37"><path fill="#2571A0" d="M19.02 2.192h-.789l-.15-.145H5.783l-.15.145h-.79c-.823 0-1.49.648-1.49 1.446v2.858c0 .798.667 1.446 1.49 1.446h14.178c.822 0 1.49-.648 1.49-1.446V3.638c0-.798-.668-1.446-1.49-1.446Z"/><path fill="#196084" d="M4.872 6.496V3.638c0-.798.667-1.446 1.49-1.446h.79v-.145h-1.52v.145h-.789c-.823 0-1.49.648-1.49 1.446v2.858c0 .798.667 1.446 1.49 1.446h1.518c-.822 0-1.49-.648-1.49-1.446Z"/><path fill="#BABABA" d="M5.633 7.724h12.598v3.565H5.633z"/><path fill="#989DA0" d="M5.633 9.506h12.598v1.782H5.633z"/><path fill="#EAE8E8" d="M22.896 31.424c0 2.58-2.155 4.673-4.813 4.673H5.78c-2.658 0-4.813-2.092-4.813-4.673V15.587c0-2.58 2.155-4.673 4.813-4.673h12.302c2.658 0 4.813 2.092 4.813 4.673v15.837Z"/><path fill="#D6D4D4" d="M2.465 31.424V15.587c0-2.58 2.155-4.673 4.814-4.673H5.78c-2.658 0-4.813 2.092-4.813 4.673v15.837c0 2.58 2.155 4.673 4.813 4.673H7.28c-2.659 0-4.814-2.092-4.814-4.673Z"/><path fill="#4A94CC" d="M3.354 5.067v1.429c0 .799.666 1.446 1.489 1.446h14.178c.822 0 1.49-.647 1.49-1.446V5.067H3.353Z"/><path fill="#2571A0" d="M4.872 6.496V5.067H3.354v1.429c0 .799.666 1.446 1.489 1.446h1.518c-.822 0-1.49-.647-1.49-1.446Z"/><path fill="#FFA92C" d="M32.595 36.097c2.49 0 4.51-1.96 4.51-4.378 0-2.417-2.02-4.377-4.51-4.377-2.49 0-4.51 1.96-4.51 4.377 0 2.418 2.02 4.378 4.51 4.378Z"/><path fill="#FFA92C" d="M28.69 33.908c1.245 2.094 4.003 2.811 6.16 1.602l-4.51-7.582c-2.156 1.209-2.895 3.886-1.65 5.98Z"/><path fill="#EA473B" d="M25.49 36.097c-1.432 0-2.594-1.128-2.594-2.519v-6.65c0-1.39 1.162-2.518 2.594-2.518 1.433 0 2.595 1.128 2.595 2.519v6.65c0 1.39-1.162 2.518-2.595 2.518Z"/><path fill="#EA473B" d="M22.896 30.253v3.325c0 1.391 1.162 2.519 2.594 2.519 1.433 0 2.595-1.128 2.595-2.519v-3.325h-5.189Z"/><path fill="#FFA92C" d="M32.595 36.097c2.49 0 4.51-1.96 4.51-4.378 0-2.417-2.02-4.377-4.51-4.377-2.49 0-4.51 1.96-4.51 4.377 0 2.418 2.02 4.378 4.51 4.378Z"/><path fill="#F49519" d="M30.187 33.908c-1.57-2.64.058-6 3.155-6.506-3.736-.612-6.562 3.295-4.652 6.506.968 1.628 2.852 2.424 4.656 2.128a4.503 4.503 0 0 1-3.159-2.128Z"/><path fill="#FF8828" d="M28.69 33.908c1.245 2.094 4.003 2.811 6.16 1.602l-4.51-7.582c-2.156 1.209-2.895 3.886-1.65 5.98Z"/><path fill="#EA6C18" d="M30.248 35.458a4.648 4.648 0 0 0 3.097.578c-3.545-.58-5.005-4.775-2.535-7.319l-.47-.79a4.316 4.316 0 0 0-.092 7.53Z"/><path fill="#8DD83D" d="M28.085 30.399v-3.47c0-1.391-1.162-2.519-2.595-2.519-1.432 0-2.594 1.128-2.594 2.519v3.47h5.189Z"/><path fill="#5CCC2E" d="M26.239 24.517a2.665 2.665 0 0 0-.749-.107c-1.432 0-2.594 1.128-2.594 2.519v3.47h1.497v-3.47c0-1.138.778-2.1 1.846-2.412Z"/><path fill="#FFA92C" d="M19.57 28.839c0 .85-.71 1.54-1.585 1.54H5.88c-.876 0-1.586-.69-1.586-1.54V18.172c0-.85.71-1.54 1.586-1.54h12.106c.876 0 1.586.69 1.586 1.54v10.667Z"/><path fill="#F49519" d="M5.79 28.839V18.172c0-.85.71-1.54 1.586-1.54H5.879c-.876 0-1.586.69-1.586 1.54v10.667c0 .85.71 1.54 1.586 1.54h1.497c-.876 0-1.586-.69-1.586-1.54Z"/><path fill="#EAE8E8" d="M14.822 22.275H13.2V20.7c0-.57-.475-1.03-1.062-1.03h-.412c-.587 0-1.062.46-1.062 1.03v1.575H9.042c-.586 0-1.062.46-1.062 1.03v.4c0 .57.476 1.031 1.062 1.031h1.622v1.575c0 .569.475 1.03 1.062 1.03h.412c.587 0 1.062-.461 1.062-1.03v-1.575h1.622c.586 0 1.061-.461 1.061-1.03v-.4c0-.57-.475-1.031-1.061-1.031ZM16.742 0h-9.62c-.822 0-1.49.647-1.49 1.446v.746h12.599v-.746C18.23.647 17.564 0 16.74 0Z"/><path fill="#D6D4D4" d="M8.6 0H7.122c-.822 0-1.49.647-1.49 1.446v.746H7.11v-.746C7.11.647 7.777 0 8.6 0ZM10.315 23.61c-.586 0-1.062-.462-1.062-1.031v-.305h-.21c-.587 0-1.063.462-1.063 1.031v.4c0 .57.476 1.031 1.062 1.031h1.622v1.575c0 .569.475 1.03 1.062 1.03h.412c.587 0 1.062-.461 1.062-1.03v-.096h-.202c-.586 0-1.061-.462-1.061-1.03V24.481a.886.886 0 0 0-.899-.872h-.723Z"/><path fill="#4A94CC" d="M22.896 30.253v3.325c0 1.391 1.162 2.519 2.594 2.519 1.433 0 2.595-1.128 2.595-2.519v-3.325h-5.189Z"/><path fill="#2571A0" d="M24.393 33.578v-3.325h-1.497v3.325c0 1.391 1.162 2.519 2.594 2.519.26 0 .512-.038.749-.107-1.068-.312-1.846-1.274-1.846-2.412Z"/></svg>